<svg id="Layer_1" data-name="Layer 1" xmlns="http://www.w3.org/2000/svg" viewBox="0 0 500 500"><defs><style>.cls-1{fill:#8d2639;}.cls-2{fill:#fad0cd;}</style></defs><title>Artboard 1</title><polygon class="cls-1" points="165.69 296.41 206.41 337.12 136.29 366.53 136.29 366.53 165.69 296.41"/><polygon class="cls-2" points="206.41 337.12 136.29 366.53 186.05 316.76 206.41 337.12"/><polygon class="cls-1" points="335.78 203.59 295.06 162.88 365.18 133.47 365.18 133.47 335.78 203.59"/><polygon class="cls-2" points="295.06 162.88 365.18 133.47 315.42 183.24 295.06 162.88"/><polygon class="cls-1" points="295.06 335.38 335.78 294.67 365.18 364.79 365.18 364.79 295.06 335.38"/><polygon class="cls-2" points="335.78 294.67 365.18 364.79 315.42 315.02 335.78 294.67"/><polygon class="cls-1" points="202.25 165.3 161.53 206.01 132.13 135.9 132.13 135.9 202.25 165.3"/><polygon class="cls-2" points="161.53 206.01 132.13 135.9 181.89 185.66 161.53 206.01"/><polygon class="cls-1" points="315.69 184.31 250 23.72 184.31 184.31 23.72 250 184.31 315.69 250 476.28 315.69 315.69 476.28 250 315.69 184.31"/><polygon class="cls-2" points="184.31 184.31 250 23.72 250 184.31 184.31 184.31"/><polygon class="cls-2" points="315.69 184.31 476.28 250 315.69 250 315.69 184.31"/><polygon class="cls-2" points="315.69 315.69 250 476.28 250 315.69 315.69 315.69"/><polygon class="cls-2" points="184.31 315.69 23.72 250 184.31 250 184.31 315.69"/><polygon class="cls-2" points="250 250 250 250 184.31 184.31 250 184.31 250 250"/><polygon class="cls-2" points="315.69 250 250 250 250 250 315.69 184.31 315.69 250"/><polygon class="cls-2" points="315.69 315.69 250 315.69 250 250 250 250 315.69 315.69"/><polygon class="cls-2" points="250 250 184.31 315.69 184.31 250 250 250 250 250"/><circle class="cls-1" cx="250" cy="250" r="93.17"/><circle class="cls-2" cx="250" cy="250" r="82.81"/></svg>